<svg id="Logo" xmlns="http://www.w3.org/2000/svg" xmlns:xlink="http://www.w3.org/1999/xlink" viewBox="0 0 1000 1000"><defs><style>.cls-1{fill:url(#linear-gradient);}.cls-2{fill:#231f20;opacity:0.3;}.cls-3{fill:#363f4a;}</style><linearGradient id="linear-gradient" x1="146.45" y1="146.45" x2="853.55" y2="853.55" gradientUnits="userSpaceOnUse"><stop offset="0" stop-color="#efd0ff"/><stop offset="0.12" stop-color="#ebd0fd"/><stop offset="0.25" stop-color="#ded1f9"/><stop offset="0.38" stop-color="#cad3f0"/><stop offset="0.52" stop-color="#add6e5"/><stop offset="0.65" stop-color="#87d9d7"/><stop offset="0.79" stop-color="#59ddc5"/><stop offset="0.92" stop-color="#24e1b0"/><stop offset="1" stop-color="#00e4a2"/><stop offset="1" stop-color="#fff"/></linearGradient></defs><g id="_1_copy" data-name="1 copy"><circle class="cls-1" cx="500" cy="500" r="500"/><circle class="cls-2" cx="500" cy="500" r="500"/><path class="cls-3" d="M697.59,614.61a24.66,24.66,0,0,1-2.11,4.72c-4.49,9.19-9.06,18.34-13.55,27.52q-10.09,20.65-20.15,41.34c-3.33,6.84-6.88,13.57-10,20.52a17.94,17.94,0,0,1-8.33,8.95c-5,2.7-9.9,5.68-14.83,8.55l-22.35,13q-11.41,6.65-22.83,13.3c-5.24,3-10.51,6-15.77,9.08-2.4,1.39-2.83,1.36-4.57-.8-6.62-8.24-13.21-16.52-19.84-24.76Q529.17,718.46,515,701c-6.64-8.24-13.23-16.51-19.86-24.75q-11.22-13.91-22.47-27.8a13.5,13.5,0,0,0-1.58-2c-2.91-2.49-2.19-4.89-.5-7.87,5.2-9.21,10.09-18.61,15.12-27.92q9.4-17.42,18.84-34.82c3.65-6.75,7.25-13.51,10.89-20.26q10.83-20.07,21.68-40.13c3.84-7.13,7.62-14.28,11.46-21.4q9.61-17.83,19.26-35.64c3.44-6.37,6.85-12.75,10.3-19.11.93-1.71,1.14-1.69,2.26,0q9.93,14.76,19.85,29.54,10.69,15.89,21.39,31.78,15.51,23.12,31,46.24,18.81,28.05,37.63,56.08c2.2,3.28,4.43,6.54,6.65,9.82A2.49,2.49,0,0,1,697.59,614.61Z"/><path class="cls-3" d="M241.59,355.33c-1.27-4.66,1.7-7.14,5.73-9.41,10.7-6,21.23-12.36,31.85-18.52,9.2-5.34,18.45-10.6,27.66-15.94,6.05-3.51,12.05-7.11,18.09-10.64,5.3-3.1,10.62-6.16,15.92-9.25,7.19-4.2,14.37-8.43,21.57-12.61,6.31-3.66,12.68-7.22,19-10.89,4.78-2.79,9.48-5.73,14.25-8.53s9.5-5.42,14.22-8.17q12.54-7.29,25.05-14.64c1.63-.95,3.26-1.89,4.88-2.85a2.23,2.23,0,0,1,3.41.81q15.87,23.73,31.8,47.44a3.54,3.54,0,0,1,.33,4q-9.15,18.48-18.16,37-12.5,25.57-25,51.17-8,16.39-16.11,32.76-9.16,18.67-18.31,37.36l-16.53,33.77q-8,16.39-16,32.79c-1,2.14-1.4,2.14-2.92.24q-16.69-20.85-33.42-41.68-12-14.94-24-29.84l-33.4-41.47-21-26.13c-2.25-2.79-4.39-5.69-6.83-8.31C241.35,361.45,241.43,358.69,241.59,355.33Z"/><path class="cls-3" d="M758.62,420.38c0,20.58-.12,41.16.09,61.74a31.75,31.75,0,0,1-3.5,15.38c-5.36,10.38-10.4,20.92-15.55,31.41q-12.23,24.9-24.4,49.83c-.61,1.26-1.15,2.55-1.77,3.8-.25.52-.33,1.33-1.06,1.33-.55,0-.87-.61-1.18-1.06-.76-1.1-1.5-2.21-2.24-3.32q-15.68-23.43-31.35-46.87-16.77-25-33.58-50-18.3-27.27-36.61-54.55c-3.9-5.81-7.79-11.62-11.76-17.38a3.35,3.35,0,0,1-.19-4q10-18.43,19.94-36.93,12.85-23.85,25.7-47.71c5.28-9.8,10.64-19.55,15.9-29.36.79-1.48,1.58-1.78,3-.94,5.92,3.49,11.86,6.94,17.8,10.4l22,12.84q9.45,5.52,18.86,11.07c5.87,3.46,11.78,6.84,17.66,10.28L752,345.49c1.31.77,2.62,1.54,3.94,2.28a5.18,5.18,0,0,1,2.69,5c0,1,0,2.07,0,3.11Z"/><path class="cls-3" d="M448.44,618.35c-.48-.62-1-1.25-1.45-1.86-3.07-3.85-6.13-7.71-9.22-11.55q-13.44-16.68-26.91-33.35-9.94-12.36-19.86-24.75c-1.87-2.32-3.71-4.67-5.65-6.92a3.13,3.13,0,0,1-.5-3.94c4.54-9,9-18.1,13.44-27.16q9.22-18.76,18.4-37.54,8.91-18.19,17.81-36.4,7.94-16.23,15.89-32.46c6.16-12.63,12.27-25.29,18.44-37.91,5.67-11.59,11.42-23.14,17.11-34.71,2.5-5.08,4.94-10.19,7.41-15.28.13-.27.28-.54.43-.8,1-1.78,1.12-1.83,2.24-.17q8.18,12.09,16.29,24.23L547,389.45c4.28,6.37,8.52,12.75,12.87,19.06a3.48,3.48,0,0,1,.14,4.16c-4,7.3-7.94,14.66-11.9,22q-9.61,17.83-19.25,35.65c-3.75,7-7.47,13.94-11.22,20.9q-9.74,18.07-19.49,36.14-6.63,12.28-13.24,24.58-9.66,17.91-19.33,35.81c-4.76,8.83-9.48,17.69-14.23,26.54-.54,1-1.11,2-1.7,3A1.76,1.76,0,0,1,448.44,618.35Z"/><path class="cls-3" d="M241.52,528.56q0-58.83,0-117.65c0-.93-.48-2.31.43-2.7,1.12-.49,1.46,1,2,1.7,5.94,7.31,11.81,14.68,17.72,22q11.55,14.34,23.14,28.67,13.62,16.89,27.22,33.8,9.38,11.66,18.72,23.32c5.83,7.25,11.64,14.51,17.57,21.68a4,4,0,0,1,.6,5c-6.94,13.88-13.74,27.83-20.58,41.76q-8.91,18.2-17.8,36.4-8.79,18-17.58,35.9c-2.48,5.08-4.93,10.19-7.37,15.29-.53,1.11-1.15,1.39-2.29.72Q274.7,669.4,266,664.39c-5.05-2.93-10.1-5.83-15.15-8.75-2.26-1.31-4.53-2.61-6.76-4a5,5,0,0,1-2.56-4.36c0-.86,0-1.71,0-2.56Z"/><path class="cls-3" d="M433.9,646.47c-.26.54-.53,1.22-.87,1.86q-7.48,13.89-15,27.79-10.63,19.67-21.27,39.32c-3,5.62-6,11.26-9,16.9-1.05,2-1.35,2.16-3.22,1.09-6.37-3.67-12.7-7.41-19.05-11.12l-10.39-6q-7.49-4.34-15-8.67L315.06,693c-1.26-.73-2.48-1.56-3.78-2.22s-1.47-1.39-.84-2.64c1.41-2.83,2.72-5.71,4.11-8.55q7.26-14.73,14.54-29.47,9.29-18.92,18.53-37.86,8.65-17.7,17.34-35.4c1.41-2.9,2.83-5.79,4.19-8.71.68-1.46,1.33-1.28,2.2-.2q9.84,12.33,19.72,24.63,12.51,15.55,25.08,31.07,8.48,10.52,16.92,21A3.23,3.23,0,0,1,433.9,646.47Z"/><path class="cls-3" d="M633,276.85c-.11.24-.25.58-.42.89q-7.38,13.74-14.78,27.48-5.66,10.53-11.32,21.06-10.87,20.16-21.77,40.3c-2.34,4.34-4.63,8.7-6.93,13.06-1.14,2.18-1.41,2.21-2.8.12q-9.37-13.93-18.72-27.88Q545.23,335.44,534.18,319c-7.84-11.67-15.64-23.35-23.52-35a3.65,3.65,0,0,1-.32-4.16c5.55-11.17,11-22.38,16.48-33.59q5.64-11.56,11.24-23.15c.65-1.36,1.46-1.59,2.75-.83q17.07,10,34.17,19.94c6.36,3.69,12.82,7.22,19.17,10.93,11.5,6.72,23,13.52,34.42,20.28,1.2.71,2.43,1.38,3.62,2.11A1.76,1.76,0,0,1,633,276.85Z"/><path class="cls-3" d="M500.23,800a10.52,10.52,0,0,1-3.14-.93c-6-3.55-12.09-7-18.12-10.55-6.61-3.87-13.19-7.8-19.8-11.66-5.88-3.43-11.8-6.78-17.69-10.19-6.15-3.57-12.28-7.18-18.42-10.77l-9.42-5.54c-2.24-1.31-2.37-1.6-1.16-3.84q9.31-17.26,18.67-34.5c4.67-8.67,9.3-17.37,14-26,2.56-4.77,5.15-9.53,7.7-14.3.56-1,1-1.17,1.84-.16,5.88,7.37,11.8,14.69,17.71,22q12,14.84,23.92,29.66c7.7,9.57,15.35,19.16,23.05,28.73q9.42,11.73,18.89,23.41c1.65,2,1.75,2.15-.49,3.52-5,3-10,5.94-15.07,8.89-4.77,2.8-9.49,5.67-14.33,8.35-2.31,1.29-4.37,3.09-7,3.7C500.93,799.88,500.57,799.94,500.23,800Z"/><path class="cls-3" d="M758.62,603.28v42.57a9.15,9.15,0,0,1-.26,3.08c-.21.57-.31,1.27-1,1.4s-1.05-.5-1.39-1c-2-3-4.05-6.07-6.09-9.11-5.69-8.49-11.33-17-17.13-25.43a4.88,4.88,0,0,1-.41-5.65c6.2-12.4,12.26-24.89,18.36-37.35,2.06-4.2,4.09-8.43,6.16-12.63.28-.56.4-1.59,1.15-1.44s.6,1.21.6,1.89q0,20.55,0,41.11Z"/><path class="cls-3" d="M500.28,200c2.72-.15,4.66,1.63,6.85,2.77,1.66.87,3.23,1.92,4.85,2.89,2,1.19,2.08,1.39,1.08,3.44-3.1,6.34-6.22,12.67-9.31,19q-5.88,12.06-11.74,24.12c-.27.55-.51,1.26-1.12,1.36-.8.14-1-.7-1.39-1.23q-10.69-15.92-21.36-31.83c-1.39-2.07-1.4-2.24.73-3.5,5-3,10.11-5.84,15.15-8.79,3.73-2.18,7.44-4.38,11.12-6.64A10,10,0,0,1,500.28,200Z"/><path class="cls-3" d="M731.93,665c0,1.07-.87,1.41-1.5,1.78-8.78,5.18-17.54,10.38-26.4,15.41-2.48,1.4-4.82,3.05-7.38,4.31-.56.27-1.28.82-1.84.24s.1-1.14.36-1.65q6.66-13.61,13.36-27.19c2.33-4.75,4.64-9.51,7-14.26.83-1.68,1-1.68,2.09-.11l13.54,20.13C731.45,664.1,731.7,664.58,731.93,665Z"/></g></svg>